# xmcd
#
# Track frame offsets:
#	150
#	19554
#	36449
#	51955
#	70309
#	88358
#	107400
#	126373
#	145583
#	163661
#	179041
#	194374
#	219137
#	235979
#	254412
#	271959
#	295625
#
# Disc length: 4117 seconds
#
# Revision: 0
# Processed by: cddbd v1.5.1PL0 Copyright (c) Steve Scherf et al.
# Submitted via: EasyCDDAExtractor 4.6.9.1
#
DISCID=fd101311
DTITLE=Montgomery Gentry - You Do Your Thing
DYEAR=2004
DGENRE=Country
TTITLE0=Something To Be Proud Of
TTITLE1=You Do Your Thing
TTITLE2=If You Ever Stop Loving Me
TTITLE3=If Its the Last Thing I Do
TTITLE4=She Loved Me
TTITLE5=Gone
TTITLE6=All I Know About Mexico
TTITLE7=I Got Drunk
TTITLE8=Its All Good
TTITLE9=I Aint Got it All that Bad (Feat. H. Williams Jr.)
TTITLE10=Talking To My Angel
TTITLE11=I Never Thought I'd Live This Long
TTITLE12=Didn't I (Live)
TTITLE13=Merry Christmas From The Family (Live)
TTITLE14=Just Got Paid (Live)
TTITLE15=Wanted Dead Or Alive (Live)
TTITLE16=(Im A) Ramblin Man (Live)
EXTD=
EXTT0=
EXTT1=
EXTT2=
EXTT3=
EXTT4=
EXTT5=
EXTT6=
EXTT7=
EXTT8=
EXTT9=
EXTT10=
EXTT11=
EXTT12=
EXTT13=
EXTT14=
EXTT15=
EXTT16=
PLAYORDER=
